#!OML:ASF E:/inclinewalkrobotboard/Project1/Captureday1/Session1/subject1.ASF
:FULLY-SPECIFIED
:DEGREES
101
root 0 0 0 -9.54591307243667 -39.90780459240203 0.402375768275934
lowerback 2.9210447183184485 -1.4621574187151838 -1.3139209112898584
upperback -1.6386272557001358 -1.947953304612938 0.49309161440120286
thorax -3.205255795199723 -0.9649457266597778 1.559986645516201
lowerneck -15.44874975600877 -1.300456353427275 -8.06944874940681
upperneck 4.301047665728123 -1.6453773726620669 6.607491599189401
head 4.198897092887866 -0.565720781413753 3.2031644432802433
rclavicle -7.64469545833245E-15 1.490267421717559E-15
rhumerus -9.194897616373474 -7.894136210040221 -71.09532007583398
rradius 36.032471579279054
rwrist 47.49368326728262
rhand -12.995083075378098 17.99800688835603
rfingers 7.125019999999948
rthumb 13.121560568003577 -11.67459860661647
lclavicle -3.66854379211274E-15 5.089192407306453E-15
lhumerus -25.131096476666585 -5.808089363081706 82.08269286764914
lradius 41.15276286301153
lwrist -33.45971552086597
lhand -10.501414207449699 16.971279112287533
lfingers 7.051247782377404
lthumb 15.225834137230125 71.96255701425133
rfemur -12.606147769795562 3.942361038769441 27.050583540696735
rtibia 46.676677658995054
rfoot 3.8197286872697127 -2.5862246769372756
rtoes 15.078505948141052
lfemur 12.685393032748172 -2.961217953859666 -30.26554909897004
ltibia 20.14154313190704
lfoot -16.599502796914198 -1.4303626245664525
ltoes -1.6731858007200748
102
root 0 0 0 -9.028252932215294 -48.09084588140246 -0.17864428644849467
lowerback 2.722546111861016 -1.47681758247947 -0.5014471612655458
upperback -2.0102585030271247 -1.9101715138261994 0.6329283669140854
thorax -3.49813339740485 -0.9459455914088606 1.2509596359344328
lowerneck -16.483660320727047 -1.705725451281477 -8.025791081333734
upperneck 1.3675700055212907 -2.125543888472412 7.31761129683649
head 3.5206892807592904 -0.7772583808450926 3.405362637727752
rclavicle -9.15695071397064E-15 3.2467146266807134E-16
rhumerus -1.787789511853121 -11.850125632987814 -69.055686959199
rradius 23.876050382857862
rwrist 55.085445900334435
rhand -9.239620428131047 20.872521360074373
rfingers 7.1250199999999175
rthumb 16.736014094464593 -8.818043066759905
lclavicle -4.1605797048849544E-15 4.884440947890743E-15
lhumerus -26.463388837318032 -3.4330550331510388 81.75618846129792
lradius 37.89485033863956
lwrist -37.35678089765538
lhand -9.763637995494076 15.272663114247313
lfingers 7.032918707824972
lthumb 15.86811307158905 75.22815190439874
rfemur -10.192230400077475 4.958676027183988 29.820082592518077
rtibia 37.74236216698818
rfoot 1.4530100934951058 -2.3905766583581
rtoes 15.972109065172939
lfemur 12.618536522023478 -2.776794998600548 -30.56684674637448
ltibia 20.15251223245218
lfoot -17.518650132007906 -0.9103355396285195
ltoes -1.131314352955112
103
root 0 0 0 -9.095389785802784 -49.60558890674105 -0.41713007640314886
lowerback 2.5073712103168475 -1.442686955611065 -0.2762838149564386
upperback -2.1234846353668284 -1.8417045442385063 0.6266917696079012
thorax -3.50148342268918 -0.912386258238093 1.116493514887372
lowerneck -16.67849205679345 -1.8582971794098733 -7.9432275723328445
upperneck 0.8519429943992005 -2.3223647889043777 7.486944772651156
head 3.412724909868942 -0.8720525899531175 3.4443924144312987
rclavicle -9.702619298302407E-15 -5.2173485377554185E-17
rhumerus 0.5135790991657265 -12.30345206810883 -68.34742102469889
rradius 20.518356132655242
rwrist 56.77284598836846
rhand -8.00056786482 21.523408770642
rfingers 7.125019999999911
rthumb 17.921175788498672 -8.161859596036898
lclavicle -5.120501848188391E-15 4.902342425700549E-15
lhumerus -26.383644234229962 -2.656786496073771 81.32045556892912
lradius 37.01404909669794
lwrist -38.03492855728544
lhand -9.520483180718387 14.984422287225351
lfingers 7.029858543889223
lthumb 16.08840089961074 75.89694772467378
rfemur -8.902364891913864 5.734381971137459 31.371481102663886
rtibia 32.27844280551183
rfoot -1.412256517535459 -2.7461170761447242
rtoes 16.134480332737198
lfemur 12.54982767679614 -2.744967678679285 -30.588288492676703
ltibia 20.102405631783157
lfoot -17.71726818112347 -0.7949652058704215
ltoes -1.1305628858805559
104
root 0 0 0 -9.192544151592607 -49.9503062627239 -0.5670526267012357
lowerback 2.292268722020495 -1.415718716713814 -0.15501950180848967
upperback -2.2046630486412258 -1.7890679870509563 0.6083128691146985
thorax -3.469146027647276 -0.8860302129244166 1.0287249484966432
lowerneck -16.746448127674643 -1.926908907144861 -7.8877135907093185
upperneck 0.6552899726728008 -2.4123371792448207 7.508482846940672
head 3.3730058897740514 -0.9162174347475063 3.442185053655055
rclavicle -9.86711085414792E-15 -1.599286431184432E-16
rhumerus 1.3039680261309297 -12.407563487455624 -68.05731732708692
rradius 19.596087494484237
rwrist 57.193681012668236
rhand -7.638177455082156 21.7070309075278
rfingers 7.1250199999999095
rthumb 18.267669486745817 -7.9769521981259075
lclavicle -5.4531070045052664E-15 4.87536944274484E-15
lhumerus -26.21685273839086 -2.17060412700085 80.98402774260263
lradius 36.50665914593184
lwrist -38.337195334566005
lhand -9.425497344743924 14.869546629434199
lfingers 7.028955000070812
lthumb 16.175430143492726 76.10030203683569
rfemur -7.717437244717782 6.348284655736682 32.382394414346564
rtibia 29.150879374721804
rfoot -4.2213886508953316 -3.2689705214709335
rtoes 16.025034137370184
lfemur 12.480099779730748 -2.740367173439449 -30.552768510330537
ltibia 19.93853812646148
lfoot -17.855294883372473 -0.7264201868317555
ltoes -1.3274929146155579
105
root 0 0 0 -9.329710812709989 -50.073747488993874 -0.7058419033715952
lowerback 2.00506109026254 -1.3858358279636183 -0.030530603200160655
upperback -2.301766376596157 -1.728795183147708 0.5827636595676001
thorax -3.4134236456782996 -0.8555134891750329 0.9318506849270762
lowerneck -16.78577297888184 -1.977979454755845 -7.832444900740994
upperneck 0.48310420532502363 -2.4809934557310305 7.483530961745013
head 3.3354639527146155 -0.94999956178232 3.425680094638472
rclavicle -9.991216347840555E-15 -2.0537259843817058E-16
rhumerus 1.8864949346864377 -12.565621684069447 -67.82104642020252
rradius 19.1718200042948
rwrist 57.40095835403304
rhand -7.507035361914296 21.793982430715918
rfingers 7.1250199999999095
rthumb 18.392595046164963 -7.892030612626602
lclavicle -5.678139109875849E-15 5.099712732560023E-15
lhumerus -26.0883461479134 -1.4977550084059033 80.6344025803077
lradius 36.11916540320692
lwrist -38.6782579054812
lhand -9.43975634042846 14.704394542282508
lfingers 7.027610106068305
lthumb 16.156313222824597 76.1367628051809
rfemur -5.974115614557059 7.0156931933996445 33.441952270436914
rtibia 26.774261198152196
rfoot -8.016100693654082 -4.049918945684558
rtoes 15.50050102949391
lfemur 12.515102004732134 -2.753962282570839 -30.49737942084971
ltibia 19.482346437605923
lfoot -18.112535685582078 -0.6458167955959331
ltoes -1.8745574175048616
